<svg width="38" height="23" viewBox="0 0 38 23" fill="none" xmlns="http://www.w3.org/2000/svg">
<path fill-rule="evenodd" clip-rule="evenodd" d="M22.3501 4.01664C22.3501 6.04248 20.7093 7.68331 18.6834 7.68331C16.6576 7.68331 15.0168 6.04248 15.0168 4.01664C15.0168 1.99081 16.6576 0.349976 18.6834 0.349976C20.7093 0.349976 22.3501 1.99081 22.3501 4.01664ZM20.5168 4.01664C20.5168 4.50287 20.3236 4.96919 19.9798 5.313C19.636 5.65682 19.1697 5.84998 18.6834 5.84998C18.1972 5.84998 17.7309 5.65682 17.3871 5.313C17.0433 4.96919 16.8501 4.50287 16.8501 4.01664C16.8501 3.53041 17.0433 3.0641 17.3871 2.72028C17.7309 2.37646 18.1972 2.18331 18.6834 2.18331C19.1697 2.18331 19.636 2.37646 19.9798 2.72028C20.3236 3.0641 20.5168 3.53041 20.5168 4.01664ZM13.1834 5.39164C13.1834 6.48566 12.7488 7.53487 11.9752 8.30846C11.2017 9.08204 10.1524 9.51664 9.05843 9.51664C7.96441 9.51664 6.9152 9.08204 6.14162 8.30846C5.36803 7.53487 4.93343 6.48566 4.93343 5.39164C4.93343 3.11281 6.7796 1.26664 9.05843 1.26664C11.3373 1.26664 13.1834 3.11281 13.1834 5.39164ZM11.3501 5.39164C11.3501 6.65848 10.3253 7.68331 9.05843 7.68331C8.45064 7.68331 7.86775 7.44187 7.43798 7.0121C7.00821 6.58232 6.76676 5.99943 6.76676 5.39164C6.76676 4.12481 7.7916 3.09998 9.05843 3.09998C10.3253 3.09998 11.3501 4.12481 11.3501 5.39164ZM0.350098 16.3504C0.350098 13.0247 6.45785 11.35 9.51676 11.35C10.251 11.35 11.1613 11.4462 12.1201 11.6396C13.3053 10.7175 15.6337 9.51664 18.6834 9.51664C21.7332 9.51664 24.0615 10.7175 25.2468 11.6396C26.2056 11.4471 27.1158 11.35 27.8501 11.35C30.909 11.35 37.0168 13.0247 37.0168 16.3495V22.35H0.350098V16.3504ZM2.18343 16.3504C2.18343 16.1331 2.2696 15.8444 2.65276 15.4576C3.05335 15.0542 3.68676 14.6472 4.52001 14.2833C6.19843 13.55 8.23801 13.1833 9.51676 13.1833C10.7955 13.1833 12.8369 13.55 14.5126 14.2833C15.3468 14.6472 15.9802 15.0551 16.3808 15.4576C16.7639 15.8444 16.8501 16.1331 16.8501 16.3495V20.5166H2.18343V16.3504ZM22.8543 12.3079C21.5556 11.6736 20.1287 11.3458 18.6834 11.35C16.9647 11.35 15.5374 11.8037 14.5126 12.3079C16.7493 13.1301 18.6834 14.4786 18.6834 16.3504C18.6834 14.4786 20.6176 13.1301 22.8543 12.3079ZM20.9861 15.4576C20.6029 15.8444 20.5168 16.1331 20.5168 16.3495V20.5166H35.1834V16.3495C35.1834 16.1331 35.0973 15.8444 34.7141 15.4576C34.3135 15.0542 33.6801 14.6472 32.8468 14.2833C31.1684 13.55 29.1288 13.1833 27.8501 13.1833C26.5713 13.1833 24.5299 13.55 22.8543 14.2833C22.0201 14.6472 21.3867 15.0551 20.9861 15.4576ZM28.3084 9.51664C30.5873 9.51664 32.4334 7.67048 32.4334 5.39164C32.4334 3.11281 30.5873 1.26664 28.3084 1.26664C27.2144 1.26664 26.1652 1.70124 25.3916 2.47483C24.618 3.24841 24.1834 4.29762 24.1834 5.39164C24.1834 6.48566 24.618 7.53487 25.3916 8.30846C26.1652 9.08204 27.2144 9.51664 28.3084 9.51664ZM28.3084 7.68331C29.5753 7.68331 30.6001 6.65848 30.6001 5.39164C30.6001 4.12481 29.5753 3.09998 28.3084 3.09998C27.7006 3.09998 27.1177 3.34142 26.688 3.77119C26.2582 4.20096 26.0168 4.78385 26.0168 5.39164C26.0168 6.65848 27.0416 7.68331 28.3084 7.68331Z" fill="#E7B101" stroke="#F7F7F7" stroke-width="0.7"/>
</svg>
