<svg width="44" height="44" viewBox="0 0 44 44" fill="none" xmlns="http://www.w3.org/2000/svg">
<path d="M21.7334 5.43066C22.1071 5.32305 22.5023 5.32301 22.876 5.43066H22.877C23.3449 5.56347 23.8148 5.692 24.2852 5.81738L25.6973 6.18848C30.1312 7.34336 34.5534 8.50154 38.4863 11.7041L40.3281 13.2041C40.985 13.7392 41.3193 14.5384 41.3193 15.3428V27.9336C41.3192 28.1984 41.2136 28.4524 41.0264 28.6396C40.839 28.8269 40.5852 28.9326 40.3203 28.9326C40.0555 28.9326 39.8016 28.8269 39.6143 28.6396C39.427 28.4524 39.3214 28.1984 39.3213 27.9336V18.3057L38.75 18.7715L38.458 19.0098C37.1544 20.0667 35.73 20.9659 34.2148 21.6875L33.9082 21.833L34.0449 22.1436C34.0835 22.2317 34.1085 22.3273 34.1191 22.4316L34.125 22.54V30.2607C34.1249 31.186 33.8453 32.0896 33.3232 32.8535C32.8663 33.5221 32.2422 34.057 31.5156 34.4053L31.1982 34.543L24.0039 37.3486C22.9303 37.7672 21.7386 37.7671 20.665 37.3486L13.4697 34.543C12.6076 34.2068 11.8668 33.6175 11.3447 32.8535C10.8228 32.0896 10.544 31.1859 10.5439 30.2607V22.5391C10.5449 22.3897 10.5734 22.2559 10.6279 22.1338L10.7666 21.8223L10.46 21.6748C8.98863 20.9675 7.55597 20.0985 6.18262 18.9814L4.34082 17.4814C3.01992 16.4038 3.01982 14.2817 4.34082 13.2041L6.21191 11.6748L6.21094 11.6738C10.1131 8.4914 14.5048 7.33988 18.9062 6.19043L18.9053 6.18945C19.8496 5.9468 20.7916 5.69494 21.7305 5.43164L21.7334 5.43066ZM12.541 30.2607L12.5488 30.4561C12.5833 30.9101 12.7368 31.3488 12.9951 31.7266C13.2903 32.1581 13.7092 32.4908 14.1963 32.6807L21.3906 35.4863C21.9975 35.7228 22.6715 35.7229 23.2783 35.4863L30.4727 32.6826V32.6816C31.4697 32.2911 32.1269 31.3315 32.127 30.2607V22.5859L31.6572 22.7568C29.7199 23.4608 27.7443 23.9784 25.7637 24.4951C24.8186 24.7413 23.8743 24.9875 22.9365 25.2549H22.9355C22.5619 25.3625 22.1666 25.3625 21.793 25.2549H21.791C20.8552 24.9893 19.9122 24.7433 18.9688 24.4971H18.9697C16.9689 23.9748 14.9694 23.4541 13.0107 22.7412L12.541 22.5703V30.2607ZM22.21 7.37305C21.1883 7.66162 20.1946 7.9232 19.2266 8.17871C15.0188 9.28454 11.2582 10.2699 7.80859 12.959L7.47559 13.2246L5.60645 14.749C5.4517 14.8728 5.34676 15.0846 5.34668 15.3408C5.34668 15.5957 5.45017 15.8078 5.60059 15.9316L5.60156 15.9326L7.44531 17.4326C11.0164 20.3419 14.9182 21.3622 19.2959 22.5127H19.2969C20.2597 22.7615 21.2503 23.0287 22.2686 23.3135L22.3633 23.3398L22.458 23.3135C22.9689 23.1692 23.4727 23.0309 23.9697 22.8975L25.4414 22.5068C29.785 21.3653 33.652 20.3524 37.1924 17.4629L39.0645 15.9336C39.2178 15.8095 39.3213 15.5996 39.3213 15.3447C39.3213 15.0901 39.2185 14.8788 39.0684 14.7549L39.0664 14.7529L37.2246 13.2529L37.2139 13.2441L37.2021 13.2363C33.2763 10.5251 29.775 9.3302 25.373 8.17285H25.3721C24.3789 7.91537 23.3876 7.64822 22.3994 7.37207L22.3047 7.3457L22.21 7.37305Z" fill="#E7B101" stroke="#F7F7F7" stroke-width="0.7"/>
</svg>
