<svg width="44" height="44" viewBox="0 0 44 44" fill="none" xmlns="http://www.w3.org/2000/svg">
<path d="M22 4.40039C22.6075 4.40043 23.0996 4.89251 23.0996 5.5V8.49023C27.3041 10.617 31.9494 11.7334 36.667 11.7334H38.5C39.1075 11.7334 39.5994 12.2259 39.5996 12.833L39.5947 12.9453C39.5385 13.5001 39.0696 13.9326 38.5 13.9326H36.667C36.4223 13.9326 36.1778 13.9285 35.9336 13.9229V14.4639L41.3643 28.9473C41.5356 29.4049 41.3835 29.9211 40.9932 30.2139C39.2163 31.5463 37.0551 32.2665 34.834 32.2666C32.6127 32.2666 30.4509 31.5465 28.6738 30.2139C28.2828 29.9206 28.1324 29.4043 28.3037 28.9473L33.7344 14.4639V13.793C30.0546 13.4572 26.4574 12.4946 23.0996 10.9385V37.4004H31.167C31.7745 37.4004 32.2666 37.8925 32.2666 38.5C32.2666 39.1075 31.7745 39.5996 31.167 39.5996H12.834C12.2265 39.5996 11.7344 39.1075 11.7344 38.5C11.7344 37.8925 12.2265 37.4004 12.834 37.4004H20.9004V10.9385C17.5429 12.4944 13.9461 13.4572 10.2666 13.793V14.4639L15.6973 28.9473C15.8684 29.4042 15.7182 29.9206 15.3271 30.2139C13.5501 31.5466 11.3883 32.2666 9.16699 32.2666C6.94567 32.2666 4.78392 31.5466 3.00684 30.2139C2.61582 29.9206 2.46555 29.4042 2.63672 28.9473L8.06738 14.4639V13.9229C7.82316 13.9285 7.5787 13.9326 7.33398 13.9326H5.5C4.8929 13.9324 4.40039 13.4406 4.40039 12.833L4.40527 12.7207C4.46168 12.1662 4.93071 11.7336 5.5 11.7334H7.33398C12.0511 11.7333 16.6962 10.6177 20.9004 8.49121V5.5C20.9004 4.89245 21.3929 4.40065 22 4.40039ZM5.00098 28.9053C6.25423 29.6616 7.69348 30.0674 9.16699 30.0674C10.6399 30.0674 12.0781 29.6612 13.3311 28.9053L9.16602 17.7998L5.00098 28.9053ZM30.668 28.9053C31.9212 29.6615 33.3606 30.0674 34.834 30.0674C36.307 30.0673 37.745 29.6605 38.998 28.9043L34.833 17.7988L30.668 28.9053Z" fill="#E7B101" stroke="#F7F7F7" stroke-width="0.7" stroke-linecap="round" stroke-linejoin="round"/>
</svg>
