<svg width="44" height="44" viewBox="0 0 44 44" fill="none" xmlns="http://www.w3.org/2000/svg">
<mask id="path-1-outside-1_11_153" maskUnits="userSpaceOnUse" x="10.0481" y="2.62537" width="24" height="39" fill="black">
<rect fill="white" x="10.0481" y="2.62537" width="24" height="39"/>
<path d="M28.9612 4.95254C28.9612 4.77727 28.8185 4.62562 28.6233 4.62539L15.3723 4.62441C15.3291 4.62406 15.2864 4.63268 15.2463 4.64883C15.2061 4.66508 15.1689 4.68872 15.1379 4.71914C15.1071 4.74949 15.0826 4.78574 15.0657 4.82558C15.0488 4.8654 15.0397 4.90831 15.0393 4.95156V21.8119C15.0393 21.8551 15.0338 21.8981 15.0227 21.9398C14.8075 22.7503 14.1912 23.5 13.5491 23.8432C13.3278 23.9614 13.0595 24.0511 12.7815 24.0453C12.8197 24.1275 12.8678 24.1855 12.929 24.2289C13.016 24.2905 13.1842 24.3617 13.512 24.3617H16.6516L16.7229 24.3666C16.8884 24.3906 17.033 24.4962 17.1047 24.6508C17.3073 25.0882 17.4901 25.3216 17.7454 25.4721C18.017 25.6321 18.44 25.7395 19.2102 25.7621C19.4689 25.7697 19.679 25.9735 19.6946 26.2318C19.7486 27.1317 20.1083 27.738 20.8342 27.9672C21.0422 28.0329 21.1838 28.2257 21.1838 28.4437V30.7748C21.1838 31.0364 20.9818 31.2533 20.7209 31.2729C19.008 31.4013 16.7632 31.6673 14.9583 32.1732C14.0523 32.4272 13.2934 32.7318 12.7717 33.0863C12.2473 33.4427 12.0483 33.7864 12.0481 34.1137V35.6654L12.1038 35.8969C12.113 35.9352 12.1174 35.9746 12.1174 36.0141C12.1174 36.3364 12.3842 36.6087 12.7268 36.6088C13.0706 36.6088 13.3381 36.3354 13.3381 36.0141C13.338 35.7324 13.1337 35.4889 12.8489 35.433C12.6008 35.3844 12.4282 35.1578 12.4465 34.9057C12.5063 34.0932 12.9499 33.5091 13.5735 33.1137C14.1769 32.7312 14.9621 32.5129 15.7844 32.3822C17.0174 32.1862 18.4556 32.1721 19.7327 32.1791L20.9426 32.1869L21.0422 32.1967C21.268 32.243 21.4379 32.4419 21.4407 32.6811C21.4575 34.2536 21.4601 35.7124 21.925 36.9828C22.015 37.2286 21.8998 37.5018 21.6614 37.6098C21.2681 37.7878 21.0662 38.2041 21.094 38.6273C21.1217 39.0475 21.3558 39.3306 21.7073 39.3764C21.8235 39.3916 21.9235 39.4477 21.9993 39.5258C22.0751 39.448 22.1761 39.3934 22.2922 39.3783C22.644 39.3328 22.8779 39.0494 22.9055 38.6293C22.9332 38.2061 22.7308 37.7898 22.3372 37.6117C22.0989 37.5037 21.9837 37.2304 22.0735 36.9848C22.5383 35.7145 22.541 34.2561 22.5569 32.683L22.5676 32.5834C22.6155 32.3578 22.8156 32.1888 23.0549 32.1879C24.5605 32.1834 26.5699 32.1219 28.2141 32.3832C29.0367 32.514 29.8225 32.732 30.426 33.1146C31.0495 33.51 31.4931 34.0935 31.553 34.9057C31.5716 35.1587 31.3969 35.3862 31.1477 35.434C31.0116 35.4602 30.8888 35.5326 30.8 35.6391C30.7113 35.7457 30.6623 35.8802 30.6614 36.0189C30.6629 36.34 30.9282 36.6105 31.2698 36.6107C31.6136 36.6107 31.8811 36.3373 31.8811 36.016C31.8811 35.9759 31.8862 35.9358 31.8958 35.8969L31.9514 35.6693V34.1176C31.9513 33.7905 31.7524 33.4476 31.2278 33.0912C30.7061 32.7368 29.9473 32.4321 29.0413 32.1781C27.2362 31.6722 24.991 31.4057 23.2776 31.2768C23.017 31.257 22.8159 31.0401 22.8157 30.7787V28.4486C22.8157 28.4452 22.8166 28.4413 22.8167 28.4379C22.817 28.41 22.8196 28.3829 22.8245 28.3559C22.8256 28.35 22.8261 28.3441 22.8274 28.3383C22.8642 28.169 22.9864 28.0233 23.1633 27.9672C23.8885 27.738 24.249 27.1306 24.303 26.2318C24.3186 25.9736 24.5288 25.7698 24.7874 25.7621C25.5575 25.7391 25.9804 25.6312 26.2522 25.4711C26.5076 25.3205 26.6902 25.0872 26.8928 24.6498C26.9747 24.4732 27.1522 24.3607 27.3469 24.3607H30.4866C30.814 24.3607 30.9816 24.2904 31.0686 24.2289C31.1296 24.1857 31.1769 24.127 31.2151 24.0453C30.9377 24.0508 30.6704 23.9611 30.4495 23.8432C29.8072 23.5001 29.1911 22.7508 28.9758 21.9398C28.9634 21.8931 28.9602 21.8462 28.9612 21.8002V4.95254ZM14.0393 14.9496C13.8868 15.1358 13.6187 15.1902 13.4036 15.0658C13.411 15.0702 13.3675 15.0485 13.2483 15.0482C13.1393 15.0481 13.0103 15.0666 12.8889 15.102C12.774 15.1355 12.6913 15.1778 12.6438 15.2113V22.7865C12.6694 22.9022 12.7013 22.9682 12.7249 23.0023C12.7478 23.0355 12.763 23.0409 12.7668 23.0424C12.7839 23.0487 12.8799 23.0668 13.0774 22.9613C13.4594 22.7573 13.8815 22.2604 14.0393 21.7328V14.9496ZM29.9612 21.7406C30.1208 22.2657 30.5402 22.7584 30.9202 22.9613C31.1169 23.0664 31.213 23.0488 31.2307 23.0424C31.2346 23.0409 31.2498 23.0355 31.2727 23.0023C31.2963 22.9682 31.3282 22.9022 31.3538 22.7865V15.2113C31.3062 15.1777 31.2243 15.1345 31.1096 15.101C30.9882 15.0655 30.8592 15.0472 30.7502 15.0473C30.6293 15.0474 30.5861 15.07 30.595 15.0648C30.381 15.1887 30.1141 15.1355 29.9612 14.9516V21.7406ZM29.9612 14.3139C29.9978 14.2697 30.0414 14.23 30.094 14.1996C30.3031 14.0786 30.5487 14.0475 30.7483 14.0473C30.9599 14.047 31.1841 14.0809 31.3899 14.141C31.592 14.2001 31.807 14.2939 31.9827 14.4311C32.1527 14.564 32.3538 14.7961 32.3538 15.1283V22.8412C32.3537 22.8647 32.3522 22.8882 32.3489 22.9115C32.3304 23.0404 32.3344 23.1909 32.3245 23.4506C32.3157 23.6789 32.2945 23.966 32.2083 24.2436C32.1192 24.53 31.9542 24.8265 31.6467 25.0443C31.3429 25.2594 30.9535 25.3607 30.4866 25.3607H27.6536C27.4386 25.7541 27.1706 26.0908 26.761 26.3324C26.3598 26.569 25.8667 26.6873 25.2502 26.7367C25.1045 27.5987 24.6733 28.3742 23.8157 28.7807V30.3178C25.4859 30.4601 27.5751 30.7285 29.3118 31.2152C30.2586 31.4807 31.1377 31.8207 31.7903 32.2641C32.4397 32.7054 32.9513 33.3128 32.9514 34.1176V35.7279C32.9514 35.7679 32.9472 35.8082 32.9377 35.8471L32.8762 36.0922C32.8359 36.9447 32.1253 37.6107 31.2698 37.6107C30.388 37.6105 29.6614 36.9035 29.6614 36.016V36.0131C29.6637 35.6429 29.7939 35.285 30.0305 35.0004C30.1564 34.8491 30.3087 34.7233 30.4778 34.6283C30.3775 34.3631 30.1836 34.1456 29.8899 33.9594C29.4558 33.6842 28.8281 33.493 28.0579 33.3705C26.6746 33.1506 25.005 33.1734 23.55 33.184C23.5365 34.4282 23.499 35.7331 23.1409 36.9369C23.7057 37.3751 23.9447 38.0714 23.9036 38.6957C23.8537 39.4521 23.3727 40.2473 22.4202 40.3705C22.2576 40.3914 22.1043 40.3304 21.9983 40.2211C21.8923 40.3292 21.74 40.3894 21.5784 40.3686C20.6266 40.2447 20.1469 39.4498 20.0969 38.6937C20.0558 38.0699 20.2937 37.3741 20.8577 36.9359C20.4994 35.732 20.4627 34.4267 20.4485 33.183C18.994 33.1724 17.3249 33.1497 15.9417 33.3695C15.1712 33.492 14.5428 33.6831 14.1086 33.9584C13.8146 34.1448 13.6209 34.3627 13.5208 34.6283C14.0065 34.9009 14.338 35.4159 14.3381 36.0141C14.3381 36.9027 13.6077 37.6088 12.7268 37.6088C11.8696 37.6087 11.1614 36.9408 11.1223 36.0883L11.0618 35.8451C11.0525 35.8068 11.0481 35.7674 11.0481 35.7279V34.1137C11.0483 33.3088 11.5606 32.7006 12.2102 32.2592C12.8628 31.8158 13.7419 31.4757 14.6887 31.2104C16.4254 30.7236 18.514 30.4548 20.1838 30.3129V28.7816C19.3244 28.3755 18.892 27.5997 18.7463 26.7367C18.1307 26.6875 17.6385 26.5697 17.2375 26.3334C16.8277 26.0918 16.559 25.7552 16.344 25.3617H13.512C13.045 25.3617 12.6557 25.2604 12.3518 25.0453C12.044 24.8275 11.8785 24.5312 11.7893 24.2445C11.703 23.9669 11.6818 23.6801 11.6731 23.4516C11.6632 23.1916 11.667 23.041 11.6487 22.9115C11.6467 22.8973 11.6475 22.8826 11.6467 22.8686C11.6463 22.8601 11.6438 22.8517 11.6438 22.8432V15.1283C11.6438 14.7959 11.8457 14.5639 12.0159 14.4311C12.1916 14.294 12.4065 14.2009 12.6086 14.142C12.8144 14.082 13.0378 14.0479 13.2493 14.0482C13.4489 14.0486 13.6955 14.0795 13.9045 14.2006C13.9577 14.2314 14.0024 14.271 14.0393 14.3158V4.94277C14.0409 4.76823 14.0766 4.59564 14.1448 4.43496C14.213 4.2743 14.3123 4.12862 14.4368 4.00625C14.5614 3.88379 14.7093 3.78653 14.8713 3.72109C15.032 3.65619 15.2039 3.6244 15.3772 3.62539H28.6233C29.3571 3.62562 29.9612 4.21142 29.9612 4.95254V14.3139Z"/>
</mask>
<path d="M28.9612 4.95254C28.9612 4.77727 28.8185 4.62562 28.6233 4.62539L15.3723 4.62441C15.3291 4.62406 15.2864 4.63268 15.2463 4.64883C15.2061 4.66508 15.1689 4.68872 15.1379 4.71914C15.1071 4.74949 15.0826 4.78574 15.0657 4.82558C15.0488 4.8654 15.0397 4.90831 15.0393 4.95156V21.8119C15.0393 21.8551 15.0338 21.8981 15.0227 21.9398C14.8075 22.7503 14.1912 23.5 13.5491 23.8432C13.3278 23.9614 13.0595 24.0511 12.7815 24.0453C12.8197 24.1275 12.8678 24.1855 12.929 24.2289C13.016 24.2905 13.1842 24.3617 13.512 24.3617H16.6516L16.7229 24.3666C16.8884 24.3906 17.033 24.4962 17.1047 24.6508C17.3073 25.0882 17.4901 25.3216 17.7454 25.4721C18.017 25.6321 18.44 25.7395 19.2102 25.7621C19.4689 25.7697 19.679 25.9735 19.6946 26.2318C19.7486 27.1317 20.1083 27.738 20.8342 27.9672C21.0422 28.0329 21.1838 28.2257 21.1838 28.4437V30.7748C21.1838 31.0364 20.9818 31.2533 20.7209 31.2729C19.008 31.4013 16.7632 31.6673 14.9583 32.1732C14.0523 32.4272 13.2934 32.7318 12.7717 33.0863C12.2473 33.4427 12.0483 33.7864 12.0481 34.1137V35.6654L12.1038 35.8969C12.113 35.9352 12.1174 35.9746 12.1174 36.0141C12.1174 36.3364 12.3842 36.6087 12.7268 36.6088C13.0706 36.6088 13.3381 36.3354 13.3381 36.0141C13.338 35.7324 13.1337 35.4889 12.8489 35.433C12.6008 35.3844 12.4282 35.1578 12.4465 34.9057C12.5063 34.0932 12.9499 33.5091 13.5735 33.1137C14.1769 32.7312 14.9621 32.5129 15.7844 32.3822C17.0174 32.1862 18.4556 32.1721 19.7327 32.1791L20.9426 32.1869L21.0422 32.1967C21.268 32.243 21.4379 32.4419 21.4407 32.6811C21.4575 34.2536 21.4601 35.7124 21.925 36.9828C22.015 37.2286 21.8998 37.5018 21.6614 37.6098C21.2681 37.7878 21.0662 38.2041 21.094 38.6273C21.1217 39.0475 21.3558 39.3306 21.7073 39.3764C21.8235 39.3916 21.9235 39.4477 21.9993 39.5258C22.0751 39.448 22.1761 39.3934 22.2922 39.3783C22.644 39.3328 22.8779 39.0494 22.9055 38.6293C22.9332 38.2061 22.7308 37.7898 22.3372 37.6117C22.0989 37.5037 21.9837 37.2304 22.0735 36.9848C22.5383 35.7145 22.541 34.2561 22.5569 32.683L22.5676 32.5834C22.6155 32.3578 22.8156 32.1888 23.0549 32.1879C24.5605 32.1834 26.5699 32.1219 28.2141 32.3832C29.0367 32.514 29.8225 32.732 30.426 33.1146C31.0495 33.51 31.4931 34.0935 31.553 34.9057C31.5716 35.1587 31.3969 35.3862 31.1477 35.434C31.0116 35.4602 30.8888 35.5326 30.8 35.6391C30.7113 35.7457 30.6623 35.8802 30.6614 36.0189C30.6629 36.34 30.9282 36.6105 31.2698 36.6107C31.6136 36.6107 31.8811 36.3373 31.8811 36.016C31.8811 35.9759 31.8862 35.9358 31.8958 35.8969L31.9514 35.6693V34.1176C31.9513 33.7905 31.7524 33.4476 31.2278 33.0912C30.7061 32.7368 29.9473 32.4321 29.0413 32.1781C27.2362 31.6722 24.991 31.4057 23.2776 31.2768C23.017 31.257 22.8159 31.0401 22.8157 30.7787V28.4486C22.8157 28.4452 22.8166 28.4413 22.8167 28.4379C22.817 28.41 22.8196 28.3829 22.8245 28.3559C22.8256 28.35 22.8261 28.3441 22.8274 28.3383C22.8642 28.169 22.9864 28.0233 23.1633 27.9672C23.8885 27.738 24.249 27.1306 24.303 26.2318C24.3186 25.9736 24.5288 25.7698 24.7874 25.7621C25.5575 25.7391 25.9804 25.6312 26.2522 25.4711C26.5076 25.3205 26.6902 25.0872 26.8928 24.6498C26.9747 24.4732 27.1522 24.3607 27.3469 24.3607H30.4866C30.814 24.3607 30.9816 24.2904 31.0686 24.2289C31.1296 24.1857 31.1769 24.127 31.2151 24.0453C30.9377 24.0508 30.6704 23.9611 30.4495 23.8432C29.8072 23.5001 29.1911 22.7508 28.9758 21.9398C28.9634 21.8931 28.9602 21.8462 28.9612 21.8002V4.95254ZM14.0393 14.9496C13.8868 15.1358 13.6187 15.1902 13.4036 15.0658C13.411 15.0702 13.3675 15.0485 13.2483 15.0482C13.1393 15.0481 13.0103 15.0666 12.8889 15.102C12.774 15.1355 12.6913 15.1778 12.6438 15.2113V22.7865C12.6694 22.9022 12.7013 22.9682 12.7249 23.0023C12.7478 23.0355 12.763 23.0409 12.7668 23.0424C12.7839 23.0487 12.8799 23.0668 13.0774 22.9613C13.4594 22.7573 13.8815 22.2604 14.0393 21.7328V14.9496ZM29.9612 21.7406C30.1208 22.2657 30.5402 22.7584 30.9202 22.9613C31.1169 23.0664 31.213 23.0488 31.2307 23.0424C31.2346 23.0409 31.2498 23.0355 31.2727 23.0023C31.2963 22.9682 31.3282 22.9022 31.3538 22.7865V15.2113C31.3062 15.1777 31.2243 15.1345 31.1096 15.101C30.9882 15.0655 30.8592 15.0472 30.7502 15.0473C30.6293 15.0474 30.5861 15.07 30.595 15.0648C30.381 15.1887 30.1141 15.1355 29.9612 14.9516V21.7406ZM29.9612 14.3139C29.9978 14.2697 30.0414 14.23 30.094 14.1996C30.3031 14.0786 30.5487 14.0475 30.7483 14.0473C30.9599 14.047 31.1841 14.0809 31.3899 14.141C31.592 14.2001 31.807 14.2939 31.9827 14.4311C32.1527 14.564 32.3538 14.7961 32.3538 15.1283V22.8412C32.3537 22.8647 32.3522 22.8882 32.3489 22.9115C32.3304 23.0404 32.3344 23.1909 32.3245 23.4506C32.3157 23.6789 32.2945 23.966 32.2083 24.2436C32.1192 24.53 31.9542 24.8265 31.6467 25.0443C31.3429 25.2594 30.9535 25.3607 30.4866 25.3607H27.6536C27.4386 25.7541 27.1706 26.0908 26.761 26.3324C26.3598 26.569 25.8667 26.6873 25.2502 26.7367C25.1045 27.5987 24.6733 28.3742 23.8157 28.7807V30.3178C25.4859 30.4601 27.5751 30.7285 29.3118 31.2152C30.2586 31.4807 31.1377 31.8207 31.7903 32.2641C32.4397 32.7054 32.9513 33.3128 32.9514 34.1176V35.7279C32.9514 35.7679 32.9472 35.8082 32.9377 35.8471L32.8762 36.0922C32.8359 36.9447 32.1253 37.6107 31.2698 37.6107C30.388 37.6105 29.6614 36.9035 29.6614 36.016V36.0131C29.6637 35.6429 29.7939 35.285 30.0305 35.0004C30.1564 34.8491 30.3087 34.7233 30.4778 34.6283C30.3775 34.3631 30.1836 34.1456 29.8899 33.9594C29.4558 33.6842 28.8281 33.493 28.0579 33.3705C26.6746 33.1506 25.005 33.1734 23.55 33.184C23.5365 34.4282 23.499 35.7331 23.1409 36.9369C23.7057 37.3751 23.9447 38.0714 23.9036 38.6957C23.8537 39.4521 23.3727 40.2473 22.4202 40.3705C22.2576 40.3914 22.1043 40.3304 21.9983 40.2211C21.8923 40.3292 21.74 40.3894 21.5784 40.3686C20.6266 40.2447 20.1469 39.4498 20.0969 38.6937C20.0558 38.0699 20.2937 37.3741 20.8577 36.9359C20.4994 35.732 20.4627 34.4267 20.4485 33.183C18.994 33.1724 17.3249 33.1497 15.9417 33.3695C15.1712 33.492 14.5428 33.6831 14.1086 33.9584C13.8146 34.1448 13.6209 34.3627 13.5208 34.6283C14.0065 34.9009 14.338 35.4159 14.3381 36.0141C14.3381 36.9027 13.6077 37.6088 12.7268 37.6088C11.8696 37.6087 11.1614 36.9408 11.1223 36.0883L11.0618 35.8451C11.0525 35.8068 11.0481 35.7674 11.0481 35.7279V34.1137C11.0483 33.3088 11.5606 32.7006 12.2102 32.2592C12.8628 31.8158 13.7419 31.4757 14.6887 31.2104C16.4254 30.7236 18.514 30.4548 20.1838 30.3129V28.7816C19.3244 28.3755 18.892 27.5997 18.7463 26.7367C18.1307 26.6875 17.6385 26.5697 17.2375 26.3334C16.8277 26.0918 16.559 25.7552 16.344 25.3617H13.512C13.045 25.3617 12.6557 25.2604 12.3518 25.0453C12.044 24.8275 11.8785 24.5312 11.7893 24.2445C11.703 23.9669 11.6818 23.6801 11.6731 23.4516C11.6632 23.1916 11.667 23.041 11.6487 22.9115C11.6467 22.8973 11.6475 22.8826 11.6467 22.8686C11.6463 22.8601 11.6438 22.8517 11.6438 22.8432V15.1283C11.6438 14.7959 11.8457 14.5639 12.0159 14.4311C12.1916 14.294 12.4065 14.2009 12.6086 14.142C12.8144 14.082 13.0378 14.0479 13.2493 14.0482C13.4489 14.0486 13.6955 14.0795 13.9045 14.2006C13.9577 14.2314 14.0024 14.271 14.0393 14.3158V4.94277C14.0409 4.76823 14.0766 4.59564 14.1448 4.43496C14.213 4.2743 14.3123 4.12862 14.4368 4.00625C14.5614 3.88379 14.7093 3.78653 14.8713 3.72109C15.032 3.65619 15.2039 3.6244 15.3772 3.62539H28.6233C29.3571 3.62562 29.9612 4.21142 29.9612 4.95254V14.3139Z" fill="#E7B101"/>
<path d="M28.9612 4.95254C28.9612 4.77727 28.8185 4.62562 28.6233 4.62539L15.3723 4.62441C15.3291 4.62406 15.2864 4.63268 15.2463 4.64883C15.2061 4.66508 15.1689 4.68872 15.1379 4.71914C15.1071 4.74949 15.0826 4.78574 15.0657 4.82558C15.0488 4.8654 15.0397 4.90831 15.0393 4.95156V21.8119C15.0393 21.8551 15.0338 21.8981 15.0227 21.9398C14.8075 22.7503 14.1912 23.5 13.5491 23.8432C13.3278 23.9614 13.0595 24.0511 12.7815 24.0453C12.8197 24.1275 12.8678 24.1855 12.929 24.2289C13.016 24.2905 13.1842 24.3617 13.512 24.3617H16.6516L16.7229 24.3666C16.8884 24.3906 17.033 24.4962 17.1047 24.6508C17.3073 25.0882 17.4901 25.3216 17.7454 25.4721C18.017 25.6321 18.44 25.7395 19.2102 25.7621C19.4689 25.7697 19.679 25.9735 19.6946 26.2318C19.7486 27.1317 20.1083 27.738 20.8342 27.9672C21.0422 28.0329 21.1838 28.2257 21.1838 28.4437V30.7748C21.1838 31.0364 20.9818 31.2533 20.7209 31.2729C19.008 31.4013 16.7632 31.6673 14.9583 32.1732C14.0523 32.4272 13.2934 32.7318 12.7717 33.0863C12.2473 33.4427 12.0483 33.7864 12.0481 34.1137V35.6654L12.1038 35.8969C12.113 35.9352 12.1174 35.9746 12.1174 36.0141C12.1174 36.3364 12.3842 36.6087 12.7268 36.6088C13.0706 36.6088 13.3381 36.3354 13.3381 36.0141C13.338 35.7324 13.1337 35.4889 12.8489 35.433C12.6008 35.3844 12.4282 35.1578 12.4465 34.9057C12.5063 34.0932 12.9499 33.5091 13.5735 33.1137C14.1769 32.7312 14.9621 32.5129 15.7844 32.3822C17.0174 32.1862 18.4556 32.1721 19.7327 32.1791L20.9426 32.1869L21.0422 32.1967C21.268 32.243 21.4379 32.4419 21.4407 32.6811C21.4575 34.2536 21.4601 35.7124 21.925 36.9828C22.015 37.2286 21.8998 37.5018 21.6614 37.6098C21.2681 37.7878 21.0662 38.2041 21.094 38.6273C21.1217 39.0475 21.3558 39.3306 21.7073 39.3764C21.8235 39.3916 21.9235 39.4477 21.9993 39.5258C22.0751 39.448 22.1761 39.3934 22.2922 39.3783C22.644 39.3328 22.8779 39.0494 22.9055 38.6293C22.9332 38.2061 22.7308 37.7898 22.3372 37.6117C22.0989 37.5037 21.9837 37.2304 22.0735 36.9848C22.5383 35.7145 22.541 34.2561 22.5569 32.683L22.5676 32.5834C22.6155 32.3578 22.8156 32.1888 23.0549 32.1879C24.5605 32.1834 26.5699 32.1219 28.2141 32.3832C29.0367 32.514 29.8225 32.732 30.426 33.1146C31.0495 33.51 31.4931 34.0935 31.553 34.9057C31.5716 35.1587 31.3969 35.3862 31.1477 35.434C31.0116 35.4602 30.8888 35.5326 30.8 35.6391C30.7113 35.7457 30.6623 35.8802 30.6614 36.0189C30.6629 36.34 30.9282 36.6105 31.2698 36.6107C31.6136 36.6107 31.8811 36.3373 31.8811 36.016C31.8811 35.9759 31.8862 35.9358 31.8958 35.8969L31.9514 35.6693V34.1176C31.9513 33.7905 31.7524 33.4476 31.2278 33.0912C30.7061 32.7368 29.9473 32.4321 29.0413 32.1781C27.2362 31.6722 24.991 31.4057 23.2776 31.2768C23.017 31.257 22.8159 31.0401 22.8157 30.7787V28.4486C22.8157 28.4452 22.8166 28.4413 22.8167 28.4379C22.817 28.41 22.8196 28.3829 22.8245 28.3559C22.8256 28.35 22.8261 28.3441 22.8274 28.3383C22.8642 28.169 22.9864 28.0233 23.1633 27.9672C23.8885 27.738 24.249 27.1306 24.303 26.2318C24.3186 25.9736 24.5288 25.7698 24.7874 25.7621C25.5575 25.7391 25.9804 25.6312 26.2522 25.4711C26.5076 25.3205 26.6902 25.0872 26.8928 24.6498C26.9747 24.4732 27.1522 24.3607 27.3469 24.3607H30.4866C30.814 24.3607 30.9816 24.2904 31.0686 24.2289C31.1296 24.1857 31.1769 24.127 31.2151 24.0453C30.9377 24.0508 30.6704 23.9611 30.4495 23.8432C29.8072 23.5001 29.1911 22.7508 28.9758 21.9398C28.9634 21.8931 28.9602 21.8462 28.9612 21.8002V4.95254ZM14.0393 14.9496C13.8868 15.1358 13.6187 15.1902 13.4036 15.0658C13.411 15.0702 13.3675 15.0485 13.2483 15.0482C13.1393 15.0481 13.0103 15.0666 12.8889 15.102C12.774 15.1355 12.6913 15.1778 12.6438 15.2113V22.7865C12.6694 22.9022 12.7013 22.9682 12.7249 23.0023C12.7478 23.0355 12.763 23.0409 12.7668 23.0424C12.7839 23.0487 12.8799 23.0668 13.0774 22.9613C13.4594 22.7573 13.8815 22.2604 14.0393 21.7328V14.9496ZM29.9612 21.7406C30.1208 22.2657 30.5402 22.7584 30.9202 22.9613C31.1169 23.0664 31.213 23.0488 31.2307 23.0424C31.2346 23.0409 31.2498 23.0355 31.2727 23.0023C31.2963 22.9682 31.3282 22.9022 31.3538 22.7865V15.2113C31.3062 15.1777 31.2243 15.1345 31.1096 15.101C30.9882 15.0655 30.8592 15.0472 30.7502 15.0473C30.6293 15.0474 30.5861 15.07 30.595 15.0648C30.381 15.1887 30.1141 15.1355 29.9612 14.9516V21.7406ZM29.9612 14.3139C29.9978 14.2697 30.0414 14.23 30.094 14.1996C30.3031 14.0786 30.5487 14.0475 30.7483 14.0473C30.9599 14.047 31.1841 14.0809 31.3899 14.141C31.592 14.2001 31.807 14.2939 31.9827 14.4311C32.1527 14.564 32.3538 14.7961 32.3538 15.1283V22.8412C32.3537 22.8647 32.3522 22.8882 32.3489 22.9115C32.3304 23.0404 32.3344 23.1909 32.3245 23.4506C32.3157 23.6789 32.2945 23.966 32.2083 24.2436C32.1192 24.53 31.9542 24.8265 31.6467 25.0443C31.3429 25.2594 30.9535 25.3607 30.4866 25.3607H27.6536C27.4386 25.7541 27.1706 26.0908 26.761 26.3324C26.3598 26.569 25.8667 26.6873 25.2502 26.7367C25.1045 27.5987 24.6733 28.3742 23.8157 28.7807V30.3178C25.4859 30.4601 27.5751 30.7285 29.3118 31.2152C30.2586 31.4807 31.1377 31.8207 31.7903 32.2641C32.4397 32.7054 32.9513 33.3128 32.9514 34.1176V35.7279C32.9514 35.7679 32.9472 35.8082 32.9377 35.8471L32.8762 36.0922C32.8359 36.9447 32.1253 37.6107 31.2698 37.6107C30.388 37.6105 29.6614 36.9035 29.6614 36.016V36.0131C29.6637 35.6429 29.7939 35.285 30.0305 35.0004C30.1564 34.8491 30.3087 34.7233 30.4778 34.6283C30.3775 34.3631 30.1836 34.1456 29.8899 33.9594C29.4558 33.6842 28.8281 33.493 28.0579 33.3705C26.6746 33.1506 25.005 33.1734 23.55 33.184C23.5365 34.4282 23.499 35.7331 23.1409 36.9369C23.7057 37.3751 23.9447 38.0714 23.9036 38.6957C23.8537 39.4521 23.3727 40.2473 22.4202 40.3705C22.2576 40.3914 22.1043 40.3304 21.9983 40.2211C21.8923 40.3292 21.74 40.3894 21.5784 40.3686C20.6266 40.2447 20.1469 39.4498 20.0969 38.6937C20.0558 38.0699 20.2937 37.3741 20.8577 36.9359C20.4994 35.732 20.4627 34.4267 20.4485 33.183C18.994 33.1724 17.3249 33.1497 15.9417 33.3695C15.1712 33.492 14.5428 33.6831 14.1086 33.9584C13.8146 34.1448 13.6209 34.3627 13.5208 34.6283C14.0065 34.9009 14.338 35.4159 14.3381 36.0141C14.3381 36.9027 13.6077 37.6088 12.7268 37.6088C11.8696 37.6087 11.1614 36.9408 11.1223 36.0883L11.0618 35.8451C11.0525 35.8068 11.0481 35.7674 11.0481 35.7279V34.1137C11.0483 33.3088 11.5606 32.7006 12.2102 32.2592C12.8628 31.8158 13.7419 31.4757 14.6887 31.2104C16.4254 30.7236 18.514 30.4548 20.1838 30.3129V28.7816C19.3244 28.3755 18.892 27.5997 18.7463 26.7367C18.1307 26.6875 17.6385 26.5697 17.2375 26.3334C16.8277 26.0918 16.559 25.7552 16.344 25.3617H13.512C13.045 25.3617 12.6557 25.2604 12.3518 25.0453C12.044 24.8275 11.8785 24.5312 11.7893 24.2445C11.703 23.9669 11.6818 23.6801 11.6731 23.4516C11.6632 23.1916 11.667 23.041 11.6487 22.9115C11.6467 22.8973 11.6475 22.8826 11.6467 22.8686C11.6463 22.8601 11.6438 22.8517 11.6438 22.8432V15.1283C11.6438 14.7959 11.8457 14.5639 12.0159 14.4311C12.1916 14.294 12.4065 14.2009 12.6086 14.142C12.8144 14.082 13.0378 14.0479 13.2493 14.0482C13.4489 14.0486 13.6955 14.0795 13.9045 14.2006C13.9577 14.2314 14.0024 14.271 14.0393 14.3158V4.94277C14.0409 4.76823 14.0766 4.59564 14.1448 4.43496C14.213 4.2743 14.3123 4.12862 14.4368 4.00625C14.5614 3.88379 14.7093 3.78653 14.8713 3.72109C15.032 3.65619 15.2039 3.6244 15.3772 3.62539H28.6233C29.3571 3.62562 29.9612 4.21142 29.9612 4.95254V14.3139Z" stroke="#F7F7F7" stroke-width="1.4" stroke-linecap="round" stroke-linejoin="round" mask="url(#path-1-outside-1_11_153)"/>
</svg>
