<svg xmlns="http://www.w3.org/2000/svg" width="48" height="48" viewBox="0 0 48 48" fill="none">
  <circle cx="24" cy="24" r="20" stroke="white" stroke-width="2"></circle>
  <path d="M18 20H22V32H18V20ZM20 14.8C18.9 14.8 18 15.7 18 16.8C18 17.9 18.9 18.8 20 18.8C21.1 18.8 22 17.9 22 16.8C22 15.7 21.1 14.8 20 14.8ZM25 20H28.8V21.7H28.9C29.4 20.7 30.7 19.7 32.6 19.7C36 19.7 36.5 21.9 36.5 25V32H32.5V25.8C32.5 24.3 32.5 22.4 30.5 22.4C28.5 22.4 28.2 24 28.2 25.7V32H24.2V20H25Z" fill="white"></path>
</svg>