<svg width="41" height="40" viewBox="0 0 41 40" fill="none" xmlns="http://www.w3.org/2000/svg">
<circle cx="20.4722" cy="18.3259" r="17" stroke="#F7F7F7" stroke-opacity="0.41" stroke-width="2"/>
<path d="M28.9109 12.825L27.6826 12.3117V20.5892L29.9101 15.2175C30.2859 14.2825 29.8551 13.21 28.9109 12.825ZM11.0359 16.2167L15.5826 27.1709C15.7164 27.5041 15.9448 27.791 16.2396 27.9962C16.5344 28.2014 16.8827 28.316 17.2417 28.3259C17.4801 28.3259 17.7276 28.28 17.9659 28.1792L24.7217 25.3834C25.4092 25.0992 25.8309 24.4209 25.8492 23.7425C25.8584 23.5042 25.8126 23.2384 25.7301 23L21.1467 12.0459C21.0176 11.7101 20.7901 11.4211 20.4941 11.2167C20.1981 11.0122 19.8473 10.9019 19.4876 10.9C19.2492 10.9 19.0109 10.955 18.7817 11.0375L12.0351 13.8334C11.5866 14.017 11.2294 14.3712 11.042 14.8182C10.8547 15.2651 10.8525 15.7681 11.0359 16.2167ZM25.8401 12.7334C25.8401 12.2471 25.6469 11.7808 25.3031 11.437C24.9593 11.0932 24.493 10.9 24.0067 10.9H22.6776L25.8401 18.545" fill="white"/>
<g filter="url(#filter0_f_2_1050)">
<path d="M28.9109 12.825L27.6826 12.3117V20.5892L29.9101 15.2175C30.2859 14.2825 29.8551 13.21 28.9109 12.825ZM11.0359 16.2167L15.5826 27.1709C15.7164 27.5041 15.9448 27.791 16.2396 27.9962C16.5344 28.2014 16.8827 28.316 17.2417 28.3259C17.4801 28.3259 17.7276 28.28 17.9659 28.1792L24.7217 25.3834C25.4092 25.0992 25.8309 24.4209 25.8492 23.7425C25.8584 23.5042 25.8126 23.2384 25.7301 23L21.1467 12.0459C21.0176 11.7101 20.7901 11.4211 20.4941 11.2167C20.1981 11.0122 19.8473 10.9019 19.4876 10.9C19.2492 10.9 19.0109 10.955 18.7817 11.0375L12.0351 13.8334C11.5866 14.017 11.2294 14.3712 11.042 14.8182C10.8547 15.2651 10.8525 15.7681 11.0359 16.2167ZM25.8401 12.7334C25.8401 12.2471 25.6469 11.7808 25.3031 11.437C24.9593 11.0932 24.493 10.9 24.0067 10.9H22.6776L25.8401 18.545" fill="white"/>
</g>
<defs>
<filter id="filter0_f_2_1050" x="-9.72748e-05" y="2.47955e-05" width="40.9455" height="39.2258" filterUnits="userSpaceOnUse" color-interpolation-filters="sRGB">
<feFlood flood-opacity="0" result="BackgroundImageFix"/>
<feBlend mode="normal" in="SourceGraphic" in2="BackgroundImageFix" result="shape"/>
<feGaussianBlur stdDeviation="5.45" result="effect1_foregroundBlur_2_1050"/>
</filter>
</defs>
</svg>
